HIERARCHY
ROOT root
{
	OFFSET	0	13.1	24.9
	CHANNELS 6  Xposition Yposition Zposition Xrotation Yrotation Zrotation
	JOINT spine_1
	{
		OFFSET	0	9.99999	0
		CHANNELS 3  Xrotation Yrotation Zrotation
		JOINT spine_2
		{
			OFFSET	0	112	-10
			CHANNELS 3  Xrotation Yrotation Zrotation
			JOINT spine_3
			{
				OFFSET	0	206.5	19.3
				CHANNELS 3  Xrotation Yrotation Zrotation
				JOINT spine_4
				{
					OFFSET	0	110.4	14.6
					CHANNELS 3  Xrotation Yrotation Zrotation
					JOINT neck_1
					{
						OFFSET	0	71.8	-50.3
						CHANNELS 3  Xrotation Yrotation Zrotation
						JOINT neck_2
						{
							OFFSET	0	86.2	-25.8
							CHANNELS 3  Xrotation Yrotation Zrotation
							JOINT head_ee
							{
								OFFSET	0	179.8	-8.7
								CHANNELS 3  Xrotation Yrotation Zrotation
								End Site
								{
									OFFSET	1	0	0
								}
							}
						}
					}
					JOINT left_clavicle
					{
						OFFSET	-43.2	22.4	-70.8
						CHANNELS 3  Xrotation Yrotation Zrotation
						JOINT left_shoulder
						{
							OFFSET	-93.9	-5.79999	48.7
							CHANNELS 3  Xrotation Yrotation Zrotation
							JOINT left_elbow
							{
								OFFSET	-291.4	-30.8	15.2
								CHANNELS 3  Xrotation Yrotation Zrotation
								JOINT left_lowarm_twist
								{
									OFFSET	-110.7	-3.89999	13.6
									CHANNELS 3  Xrotation Yrotation Zrotation
									JOINT left_hand
									{
										OFFSET	-110.7	-3.89999	13.6
										CHANNELS 3  Xrotation Yrotation Zrotation
										JOINT left_ee
										{
											OFFSET	-80.8	-5.10001	12.1
											CHANNELS 3  Xrotation Yrotation Zrotation
											End Site
											{
												OFFSET	1	0	0
											}
										}
									}
								}
							}
						}
					}
					JOINT right_clavicle
					{
						OFFSET	43.2	22.4	-70.8
						CHANNELS 3  Xrotation Yrotation Zrotation
						JOINT right_shoulder
						{
							OFFSET	93.9	-5.79999	48.7
							CHANNELS 3  Xrotation Yrotation Zrotation
							JOINT right_elbow
							{
								OFFSET	291.4	-30.8	15.2
								CHANNELS 3  Xrotation Yrotation Zrotation
								JOINT right_lowarm_twist
								{
									OFFSET	110.7	-3.89999	13.6
									CHANNELS 3  Xrotation Yrotation Zrotation
									JOINT right_hand
									{
										OFFSET	110.7	-3.89999	13.6
										CHANNELS 3  Xrotation Yrotation Zrotation
										JOINT right_ee
										{
											OFFSET	80.8	-5.10001	12.1
											CHANNELS 3  Xrotation Yrotation Zrotation
											End Site
											{
												OFFSET	1	0	0
											}
										}
									}
								}
							}
						}
					}
				}
			}
		}
	}
	JOINT left_hip
	{
		OFFSET	-82.8	-127.5	0.300001
		CHANNELS 3  Xrotation Yrotation Zrotation
		JOINT left_knee
		{
			OFFSET	-28.2	-396.7	2.2
			CHANNELS 3  Xrotation Yrotation Zrotation
			JOINT left_ankle
			{
				OFFSET	-11.7	-411.3	35.4
				CHANNELS 3  Xrotation Yrotation Zrotation
				JOINT left_toes
				{
					OFFSET	0	-60	-88.6
					CHANNELS 3  Xrotation Yrotation Zrotation
					JOINT left_foot_ee
					{
						OFFSET	-22.5	-16.5	-42.2
						CHANNELS 3  Xrotation Yrotation Zrotation
						End Site
						{
							OFFSET	1	0	0
						}
					}
				}
			}
		}
	}
	JOINT right_hip
	{
		OFFSET	82.8	-127.5	0.300001
		CHANNELS 3  Xrotation Yrotation Zrotation
		JOINT right_knee
		{
			OFFSET	28.2	-396.7	2.2
			CHANNELS 3  Xrotation Yrotation Zrotation
			JOINT right_ankle
			{
				OFFSET	11.7	-411.3	35.4
				CHANNELS 3  Xrotation Yrotation Zrotation
				JOINT right_toes
				{
					OFFSET	0	-60	-88.6
					CHANNELS 3  Xrotation Yrotation Zrotation
					JOINT right_foot_ee
					{
						OFFSET	22.5	-16.5	-42.2
						CHANNELS 3  Xrotation Yrotation Zrotation
						End Site
						{
							OFFSET	1	0	0
						}
					}
				}
			}
		}
	}
}
MOTION
Frames: 16
Frame Time: 0.02
3177.02 653.055 -1669.29 -126.502237502 74.1554506955 120.041080266 4.51597 0.954838 3.5308 4.52261 0.728378 3.58431 4.56329 0.250716 3.64888 4.54566 0.823475 3.56369 -6.94429 -7.10352 -4.19299 -6.90331 -10.1652 -5.61903 -0.0 0.0 -0.0 -4.63853 -3.39198 -9.71953 -43.8215 -38.4276 60.8267 0.783762 -21.2188 0.146812 -9.04847 -0.405256 1.0823 2.4173 13.0627 21.0917 -0.0 0.0 -0.0 9.63908 -11.7685 -17.9959 2.4547 21.5362 -52.4549 3.28134 58.3868 -1.83373 37.2485 0.21394 4.6707 -1.15795 -9.55303 3.47741 0.0 0.0 0.0 46.8281 -0.655057 13.0736 3.06721 -0.138406 -0.450227 -21.3161 -19.4006 3.63367 -21.5946 0.0 0.0 -0.0 0.0 -0.0 -7.71334 -4.32354 -7.92363 1.10042 0.0468757 0.162354 29.5107 -13.1204 3.8636 -13.5221 0.0 0.0 0.0 0.0 0.0 
3126.86397845 655.547 -1671.4002612 -125.502745413 73.2026451017 119.122616287 4.87354 0.938469 3.97708 4.88208 0.683707 4.02862 4.92297 0.17358 4.08245 4.90065 0.815628 4.00404 -6.43636 -8.66651 -2.05537 -6.41805 -14.5638 -3.74863 -0.0 0.0 -0.0 -3.99872 -4.04184 -8.53393 -43.0486 -38.0043 60.0662 0.779558 -21.115 0.145294 -11.0136 -0.515586 1.30818 1.88741 12.0271 17.1829 -0.0 0.0 -0.0 10.1235 -15.4359 -18.3843 -2.74268 19.05 -53.3038 3.51936 60.1467 -2.03834 37.4602 0.223794 4.69591 -0.819212 -6.76501 2.51708 0.0 0.0 0.0 47.1569 -4.07571 12.8953 -8.28204 0.251365 1.24508 -18.4976 -15.781 3.05423 -22.4977 0.0 0.0 -0.0 0.0 -0.0 -8.97336 -3.24837 -7.15931 -1.46704 -0.0576197 -0.21776 29.849 -9.51358 3.87853 -14.8262 0.0 0.0 0.0 0.0 0.0 
3092.18576929 649.224 -1667.20774176 -119.740065126 73.8162378918 112.657903111 5.14094 1.05814 4.44581 5.1516 0.773397 4.50397 5.20256 0.225605 4.5642 5.17474 0.942877 4.47163 -7.023 -8.47321 -2.10662 -7.01648 -14.2315 -3.82668 -0.0 0.0 -0.0 -3.62414 -4.8385 -7.90931 -42.4081 -37.6381 59.0957 0.833934 -22.4457 0.165472 -10.8247 -0.504641 1.28662 1.69675 10.1885 15.2726 -0.0 0.0 -0.0 9.80571 -14.8378 -17.9146 -6.10267 18.4593 -52.5986 3.46075 59.7301 -1.98761 38.0984 0.254065 4.77169 -0.74111 -6.44948 2.14509 0.0 0.0 0.0 47.6828 -5.28008 14.1142 -9.47878 0.272708 1.42748 -19.878 -16.7912 3.31077 -20.9797 0.0 0.0 -0.0 0.0 -0.0 -9.31473 -3.45562 -7.52168 -3.05758 -0.11376 -0.455395 27.3533 -10.1485 3.60622 -15.1433 0.0 0.0 0.0 0.0 0.0 
3060.01570567 645.633 -1674.65856666 -116.80975572 73.6329007747 109.353800823 5.09887 1.18398 4.27307 5.10857 0.909935 4.33957 5.1686 0.37872 4.41759 5.14297 1.071 4.30272 -8.42475 -8.37057 -3.31886 -8.42666 -13.3384 -5.15379 -0.0 0.0 -0.0 -2.77439 -6.83596 -6.49205 -41.28 -37.398 57.68 0.924527 -24.6066 0.20164 -10.3799 -0.479161 1.23575 1.39674 6.54765 11.9336 -0.0 0.0 -0.0 9.63069 -12.8284 -17.8586 -10.2895 18.2165 -51.4251 3.35567 58.9561 -1.89722 39.4463 0.320775 4.93062 -0.59061 -5.79253 1.4455 0.0 0.0 0.0 47.4367 -7.45408 15.5696 -6.11405 0.203015 0.915921 -22.8159 -18.6405 3.8621 -17.9427 0.0 0.0 -0.0 0.0 -0.0 -8.40284 -4.18133 -7.14341 -3.2907 -0.121433 -0.49035 22.1395 -11.4948 3.00186 -15.6996 0.0 0.0 0.0 0.0 0.0 
3006.31465351 654.262 -1676.08099243 -118.106046063 73.1185660773 111.93253043 5.10946 1.05295 4.12057 5.11856 0.788844 4.17908 5.16777 0.277495 4.24371 5.14388 0.943648 4.14693 -9.48282 -8.1336 -5.86361 -9.426 -11.2751 -7.68287 -0.0 0.0 -0.0 -0.552445 -11.0977 -2.46853 -37.3321 -38.4033 56.1677 1.02873 -27.0029 0.247009 -10.7834 -0.502262 1.28192 1.15791 3.10455 9.00134 -0.0 0.0 -0.0 8.86338 -11.0189 -16.6648 -16.8334 17.0437 -51.0247 2.70341 53.2411 -1.35517 40.5395 0.377623 5.05837 -0.633426 -7.61634 0.939817 0.0 0.0 0.0 43.1681 -9.05541 15.1959 -1.4119 0.0555551 0.209549 -20.3976 -24.3635 3.6596 -14.7221 0.0 0.0 -0.0 0.0 -0.0 -2.98632 -6.67596 -5.75116 -19.9454 -0.296285 -3.031 17.7627 -13.0678 2.46199 -13.2857 0.0 0.0 0.0 0.0 0.0 
2984.05340735 656.747 -1675.07915531 -119.973929791 74.089393501 114.699049545 5.09118 1.03572 4.03817 5.09992 0.776883 4.09575 5.14751 0.274191 4.15965 5.12457 0.927144 4.06443 -9.46497 -8.04932 -7.01424 -9.36159 -10.3231 -8.77966 -0.0 0.0 -0.0 0.131726 -12.2847 -1.17619 -35.9598 -38.8829 56.036 1.03912 -27.2365 0.251747 -11.4122 -0.538906 1.35352 1.16376 2.77817 8.91127 -0.0 0.0 -0.0 8.55198 -10.9735 -16.106 -19.2609 16.4557 -51.7692 2.36455 49.5043 -1.0903 40.4582 0.373307 5.0489 -0.742266 -9.55409 0.806618 0.0 0.0 0.0 39.9715 -9.3964 14.6937 -1.0437 0.0415657 0.154774 -16.6146 -27.906 3.10777 -14.3413 0.0 0.0 -0.0 0.0 -0.0 0.644814 -8.09821 -5.15271 -33.5311 0.1073 -5.07207 17.5682 -13.3884 2.43841 -10.9633 0.0 0.0 0.0 0.0 0.0 
2984.07968377 656.747 -1675.89716065 -119.230084175 74.2093815019 113.925804145 5.09118 1.03572 4.03817 5.09992 0.776883 4.09575 5.14751 0.274191 4.15965 5.12457 0.927144 4.06443 -9.46497 -8.04932 -7.01424 -9.36159 -10.3231 -8.77966 -0.0 0.0 -0.0 0.131726 -12.2847 -1.17619 -35.9598 -38.8829 56.036 1.03912 -27.2365 0.251747 -11.4122 -0.538906 1.35352 1.16376 2.77817 8.91127 -0.0 0.0 -0.0 8.55198 -10.9735 -16.106 -19.2609 16.4557 -51.7692 2.36455 49.5043 -1.0903 40.4582 0.373307 5.0489 -0.742266 -9.55409 0.806618 0.0 0.0 0.0 39.9715 -9.3964 14.6937 -1.0437 0.0415657 0.154774 -16.6146 -27.906 3.10777 -14.3413 0.0 0.0 -0.0 0.0 -0.0 0.644814 -8.09821 -5.15271 -33.5311 0.1073 -5.07207 17.5682 -13.3884 2.43841 -10.9633 0.0 0.0 0.0 0.0 0.0 
2984.11073056 656.747 -1676.74881781 -118.443394773 74.3313761187 113.108509906 5.09118 1.03572 4.03817 5.09992 0.776883 4.09575 5.14751 0.274191 4.15965 5.12457 0.927144 4.06443 -9.46497 -8.04932 -7.01424 -9.36159 -10.3231 -8.77966 -0.0 0.0 -0.0 0.131726 -12.2847 -1.17619 -35.9598 -38.8829 56.036 1.03912 -27.2365 0.251747 -11.4122 -0.538906 1.35352 1.16376 2.77817 8.91127 -0.0 0.0 -0.0 8.55198 -10.9735 -16.106 -19.2609 16.4557 -51.7692 2.36455 49.5043 -1.0903 40.4582 0.373307 5.0489 -0.742266 -9.55409 0.806618 0.0 0.0 0.0 39.9715 -9.3964 14.6937 -1.0437 0.0415657 0.154774 -16.6146 -27.906 3.10777 -14.3413 0.0 0.0 -0.0 0.0 -0.0 0.644814 -8.09821 -5.15271 -33.5311 0.1073 -5.07207 17.5682 -13.3884 2.43841 -10.9633 0.0 0.0 0.0 0.0 0.0 
2971.90272444 661.264 -1678.6393778 -117.422089694 74.3576658044 112.633296909 5.01766 1.00625 3.89963 5.0258 0.756268 3.95564 5.07079 0.265279 4.01844 5.04938 0.896095 3.92637 -9.66835 -7.52278 -6.98513 -9.56216 -9.38571 -8.63895 -0.0 0.0 -0.0 0.588476 -13.3952 -0.340523 -33.428 -39.3212 55.8887 1.02998 -27.031 0.247577 -11.6312 -0.551856 1.37838 1.1173 2.88551 8.64236 -0.0 0.0 -0.0 8.36778 -10.987 -15.7733 -21.544 16.1659 -52.9017 2.29413 48.6474 -1.03709 40.275 0.363641 5.02755 -0.811492 -10.539 0.823063 0.0 0.0 0.0 38.1328 -9.39462 14.1708 -0.541094 0.0219017 0.0801483 -14.9394 -28.4837 2.8122 -14.3399 0.0 0.0 -0.0 0.0 -0.0 3.29805 -8.77861 -4.09839 -39.1103 0.41114 -5.87335 16.829 -13.1789 2.34206 -10.5756 0.0 0.0 0.0 0.0 0.0 
2952.58467811 678.137 -1686.0006519 -118.643664243 75.4621307945 114.961164341 4.81986 0.951169 3.64513 4.82696 0.717455 3.69817 4.8674 0.244881 3.75907 4.84865 0.835081 3.67343 -9.96096 -6.79795 -7.00399 -9.84821 -8.0547 -8.49837 -0.0 0.0 -0.0 1.12417 -14.8146 0.638285 -30.0194 -39.8665 55.6866 1.01295 -26.6462 0.239887 -11.9301 -0.569686 1.41222 1.0529 3.08179 8.28904 -0.0 0.0 -0.0 8.23249 -11.0668 -15.5243 -24.6073 15.857 -54.8835 2.19973 47.4512 -0.966884 40.0198 0.350295 4.99778 -0.910463 -11.9388 0.842449 0.0 0.0 0.0 35.8984 -9.42056 13.1857 0.252717 -0.0104887 -0.037363 -12.5975 -29.2552 2.39042 -14.3564 0.0 0.0 -0.0 0.0 -0.0 7.08938 -9.6594 -2.49939 -46.9487 0.966931 -6.94219 15.7747 -12.8726 2.20355 -10.0334 0.0 0.0 0.0 0.0 0.0 
2922.75831402 670.866 -1695.10395054 -119.960506215 75.7639590771 117.79495037 4.68425 0.853189 3.02768 4.68911 0.658895 3.07577 4.72066 0.257192 3.13496 4.70773 0.748841 3.05513 -10.0583 -5.70882 -6.93546 -9.93861 -6.06263 -8.16863 -0.0 0.0 -0.0 2.31211 -17.0532 2.93702 -24.4807 -40.3944 55.2681 0.923778 -24.5891 0.201328 -12.8983 -0.628639 1.52118 0.890565 3.76056 7.47532 -0.0 0.0 -0.0 7.86932 -11.2041 -14.8659 -26.974 15.5878 -56.6714 2.04744 45.3998 -0.856536 39.3102 0.313873 4.91466 -1.08246 -14.083 0.980094 0.0 0.0 0.0 31.4278 -9.31403 9.67579 2.47185 -0.109654 -0.363413 -9.75045 -29.415 1.84695 -15.1062 0.0 0.0 -0.0 0.0 -0.0 11.1947 -10.3039 -0.326023 -55.1629 1.70092 -7.9714 14.005 -11.6824 1.9665 -8.3924 0.0 0.0 0.0 0.0 0.0 
2922.03867463 670.866 -1686.60729524 -126.050256712 74.7210446306 124.091767199 4.68425 0.853189 3.02768 4.68911 0.658895 3.07577 4.72066 0.257192 3.13496 4.70773 0.748841 3.05513 -10.0583 -5.70882 -6.93546 -9.93861 -6.06263 -8.16863 -0.0 0.0 -0.0 2.31211 -17.0532 2.93702 -24.4807 -40.3944 55.2681 0.923778 -24.5891 0.201328 -12.8983 -0.628639 1.52118 0.890565 3.76056 7.47532 -0.0 0.0 -0.0 7.86932 -11.2041 -14.8659 -26.974 15.5878 -56.6714 2.04744 45.3998 -0.856536 39.3102 0.313873 4.91466 -1.08246 -14.083 0.980094 0.0 0.0 0.0 31.4278 -9.31403 9.67579 2.47185 -0.109654 -0.363413 -9.75045 -29.415 1.84695 -15.1062 0.0 0.0 -0.0 0.0 -0.0 11.1947 -10.3039 -0.326023 -55.1629 1.70092 -7.9714 14.005 -11.6824 1.9665 -8.3924 0.0 0.0 0.0 0.0 0.0 
2921.5090887 670.866 -1674.7249983 -133.160224476 73.0175341713 131.491514444 4.68425 0.853189 3.02768 4.68911 0.658895 3.07577 4.72066 0.257192 3.13496 4.70773 0.748841 3.05513 -10.0583 -5.70882 -6.93546 -9.93861 -6.06263 -8.16863 -0.0 0.0 -0.0 2.31211 -17.0532 2.93702 -24.4807 -40.3944 55.2681 0.923778 -24.5891 0.201328 -12.8983 -0.628639 1.52118 0.890565 3.76056 7.47532 -0.0 0.0 -0.0 7.86932 -11.2041 -14.8659 -26.974 15.5878 -56.6714 2.04744 45.3998 -0.856536 39.3102 0.313873 4.91466 -1.08246 -14.083 0.980094 0.0 0.0 0.0 31.4278 -9.31403 9.67579 2.47185 -0.109654 -0.363413 -9.75045 -29.415 1.84695 -15.1062 0.0 0.0 -0.0 0.0 -0.0 11.1947 -10.3039 -0.326023 -55.1629 1.70092 -7.9714 14.005 -11.6824 1.9665 -8.3924 0.0 0.0 0.0 0.0 0.0 
2917.8152647 681.504 -1667.03290033 -133.74250536 72.308065713 133.212831202 4.70434 0.868059 2.67957 4.70806 0.695857 2.72933 4.73825 0.339355 2.79607 4.72818 0.776523 2.7075 -9.68323 -5.08027 -6.96326 -9.55704 -4.80269 -8.0308 -0.0 0.0 -0.0 3.15016 -18.1779 4.6213 -21.0719 -40.6236 55.0994 0.847019 -22.7622 0.170501 -13.6067 -0.672943 1.60027 0.763435 4.31983 6.85297 -0.0 0.0 -0.0 7.80698 -11.2707 -14.7506 -28.631 15.4571 -58.0289 2.01076 44.8821 -0.830533 38.7017 0.28346 4.84301 -1.18975 -15.3008 1.10457 0.0 0.0 0.0 30.07 -9.06102 8.19264 4.09373 -0.190097 -0.59921 -9.01929 -29.1705 1.70074 -16.1458 0.0 0.0 -0.0 0.0 -0.0 11.9216 -9.50293 0.533532 -56.9847 1.88334 -8.18493 12.9263 -10.6685 1.82045 -7.36772 0.0 0.0 0.0 0.0 0.0 
2863.66374645 688.464 -1653.62676404 -124.65216157 75.9052844632 126.27747861 4.47161 0.35353 1.87811 4.47354 0.233327 1.89679 4.47989 -0.0213114 1.91097 4.4749 0.280703 1.89037 -9.37449 -3.43172 -7.19074 -9.23108 -1.50179 -7.85924 -0.0 0.0 -0.0 4.94604 -20.3185 8.29127 -12.7506 -41.9726 52.5838 0.786291 -21.2811 0.147729 -13.3601 -0.657408 1.5728 0.257472 5.65726 4.05231 -0.0 0.0 -0.0 7.09266 -10.7066 -13.5143 -36.4347 13.9894 -59.6823 1.8229 42.0784 -0.701229 37.2925 0.21598 4.67594 -1.24782 -14.496 1.82522 0.0 0.0 0.0 21.1834 -6.80244 3.04695 4.04372 -0.187516 -0.591973 -1.5483 -27.3019 0.280285 -15.9565 0.0 0.0 -0.0 0.0 -0.0 16.7067 -8.5674 0.938786 -50.8413 1.29623 -7.44281 12.5641 -6.57806 1.76981 -7.17727 0.0 0.0 0.0 0.0 0.0 
2848.92038902 689.238 -1647.37381926 -127.209495194 77.0346125099 129.135434932 4.20203 0.195376 1.86223 4.20396 0.0765032 1.87088 4.20523 -0.182309 1.86355 4.2004 0.114239 1.86896 -9.05291 -3.30239 -6.79389 -8.92508 -1.48976 -7.44088 -0.0 0.0 -0.0 5.01059 -20.269 8.43525 -11.4962 -42.1808 51.9083 0.834359 -22.456 0.165634 -13.2795 -0.652357 1.56381 0.203409 5.64441 3.69221 -0.0 0.0 -0.0 6.96221 -10.7744 -13.2801 -37.7965 13.7705 -59.9463 1.7646 41.1539 -0.662504 36.8024 0.193478 4.61746 -1.18064 -14.0408 1.61105 0.0 0.0 0.0 20.4011 -6.90786 2.93925 3.65694 -0.167775 -0.535928 -0.602761 -27.1663 0.108647 -15.7557 0.0 0.0 -0.0 0.0 -0.0 18.2133 -10.7976 0.832556 -48.751 1.11514 -7.17671 12.0445 -4.7854 1.70183 -7.16478 0.0 0.0 0.0 0.0 0.0 
